<svg width="163" height="34" viewBox="0 0 163 34" fill="none" xmlns="http://www.w3.org/2000/svg">
<path d="M26.72 16.68C26.72 18.76 26.48 20.48 26 21.88C25.4 23.68 24.36 25.08 22.88 26.16C22.24 26.6 21.4 27.24 20.32 28C19.04 29 18.36 29.84 18.28 30.48L18.24 30.6C18.24 31.12 18.6 31.36 19.36 31.36L19.56 31.28C20.32 31.28 20.68 31.52 20.68 31.96C20.68 32.64 19.76 33.24 19 33.24C18.4 33.24 17.88 32.96 17.44 32.44C17.12 32 16.96 31.6 16.96 31.16C16.96 30.52 17.36 29.6 18.16 28.44C19.72 26.24 20.56 24.96 20.76 24.6C21.48 23.28 22 21.8 22.28 20.08C21.08 19.64 19.92 19.4 18.8 19.4C16.2 19.4 13.36 20.84 10.28 23.68L11.2 23.76C13.64 23.96 15.08 24.08 15.44 24.08C17.08 24.08 18.32 23.6 19.16 22.6L19.6 23.08L15.96 28.6C13.84 27.32 11.2 26.68 8.08 26.68C5.2 26.68 3.44 27.32 2.8 28.56C2.64 28.88 2.56 29.12 2.56 29.28C2.56 29.72 3.04 30.92 3.04 31.4C3.04 32 2.76 32.32 2.2 32.32H2C1.32 32.32 1 31.88 1 31.04C1 30.28 1.32 29.44 1.96 28.48C2.24 28.08 2.76 27.44 3.52 26.6C4.8 25.2 5.6 23.96 5.88 22.96L5.96 22.32C5.96 21.6 5.6 21.24 4.88 21.24C4.04 21.24 3.28 21.6 2.6 22.36L2.52 21.64C2.52 20 3.64 18.92 5.84 18.4L5.88 17.92C6 16.52 5.08 15.2 3.68 15.04C3.44 15 3.16 15 2.88 15C2.04 15 1.16 15.2 0.32 15.6C0.52 14.52 1.08 13.68 2.08 13.04C2.96 12.44 3.96 12.16 5.12 12.16C5.12 10.44 5.44 9.04 6.12 7.92C6.52 7.24 7.48 6.16 9 4.64C8.12 4.96 7.4 5.12 6.8 5.12C6.4 5.12 5.88 5 5.2 4.76C4.2 4.44 3.64 4.28 3.56 4.24L2.64 4.12C2.16 4.12 1.6 4.4 0.92 4.96C0.8 5.04 0.52 5.32 0 5.8C0.52 3.24 2.4 1.2 4.92 1.2C5.76 1.2 7.04 1.44 8.76 1.92C9.68 2.2 10.4 2.32 10.92 2.32L11.32 2.28C11.76 2.24 12.36 2.08 13.16 1.88L14.84 1.44C12.84 2.64 11.48 3.76 10.76 4.8C9.92 6.04 9.48 7.8 9.48 10V16.24C9.48 18.28 9.28 19.92 8.88 21.12C8.48 22.4 7.68 23.84 6.44 25.4L6.56 25.52C8.36 24.28 9.64 23.12 10.36 22.04C11.28 20.72 11.72 19.08 11.72 17.12V10.08C11.72 7.48 12.48 5.44 14.04 4C15.36 2.76 17.36 1.88 20.08 1.36C18.6 2.24 17.56 3.04 16.88 3.8C15.92 4.88 15.44 6.08 15.44 7.44V11.8L22.08 6.48C23.8 7.84 24.96 9.16 25.64 10.4C26.36 11.76 26.72 13.48 26.72 15.56V16.68ZM22.28 13.92C21.84 11.8 20.84 10.32 19.36 9.56L15.48 12.84V13.92C17.28 14.36 18.52 14.56 19.12 14.56C19.72 14.56 20.32 14.48 20.96 14.32C21.08 14.28 21.52 14.16 22.28 13.92ZM22.24 19.24V14.72C21.36 15 20.24 15.16 18.92 15.16C17.76 15.16 16.64 15.04 15.48 14.76V19.12C16.64 18.8 17.76 18.64 18.76 18.64C19.88 18.64 21.04 18.84 22.24 19.24ZM42.5688 25.24L39.1288 28.12C37.4088 27.2 36.5688 25.76 36.5688 23.8L31.1288 28.16H30.9288C29.0488 26.4 28.0888 24.68 28.0888 23.04C28.0888 20.56 29.4088 18.16 32.0488 15.8L30.1288 10.8L30.6488 10.84C32.1288 10.96 33.5288 10.44 34.7688 9.28L40.4488 11.16L41.5688 10.28L41.6488 10.44C41.0088 11.44 40.5688 12.44 40.2888 13.52V24C40.4888 24.68 40.8888 25.08 41.4088 25.24L42.1288 24.88L42.5688 25.24ZM36.5688 17.72V13.32L30.7688 11.16L32.4488 15.72L36.5688 17.72ZM36.6088 22.76V18.44L32.4488 16.36C31.6888 17.72 31.2888 19.04 31.2888 20.28C31.2888 22.08 32.0488 23.76 33.6088 25.32L36.6088 22.76ZM56.4281 12.2L53.7881 14.48L51.3881 12.12L49.8281 13.32V23.68L51.9881 25.36L53.1481 24.52L53.6281 25L49.9881 28.12C48.4681 26.8 46.7481 25.8 44.8681 25.08C45.5881 24.48 45.9481 23.52 45.9481 22.2V14.16C45.9481 13.48 45.6281 12.84 44.9881 12.32L44.3081 12.76L43.8681 12.32L47.2681 9.32C48.1081 9.76 48.6681 10.16 48.9881 10.52C49.3881 10.96 49.6681 11.6 49.7881 12.44L53.8281 9.36L56.4281 12.2ZM66.1522 11.92H62.0722V23.56L64.1922 25.32L65.3122 24.44L65.7522 25L62.1522 28.12C60.3122 26.64 58.6322 25.6 57.1122 25.08C57.8322 24.32 58.1922 23.36 58.1922 22.2V11.88H56.7922L56.8322 11.32L62.0322 4.8L62.0722 9.88H66.1522V11.92ZM89.1819 25.16C87.1419 25.72 85.2619 26.76 83.5419 28.24C81.5019 27.24 79.9419 26.72 78.8619 26.72C77.6219 26.72 76.4219 27.24 75.1819 28.24C73.3419 26.88 71.0219 25.84 68.1819 25.08C68.9419 24.4 69.3019 23.36 69.3019 22V12.68C68.1419 11.28 67.5419 10.04 67.5419 8.96C67.5419 7.24 68.8619 5.68 71.5019 4.28L71.7019 4.6C70.6219 5.56 70.1019 6.44 70.1019 7.24C70.1019 7.52 70.5819 8.36 71.5419 9.72C72.5419 11.04 73.0219 12.28 73.0219 13.4L78.4219 9.36C80.0219 10.6 80.9019 11.96 81.0219 13.52L86.4619 9.32C88.2619 10.88 89.1819 12.32 89.1819 13.64V25.16ZM85.7819 25.28V14.48C85.7819 14.04 85.5419 13.52 85.0219 13C84.8619 12.8 84.6219 12.56 84.2619 12.2L81.0619 14.56V23.88C81.9419 24.2 82.9019 24.52 83.9819 24.8C84.3419 24.88 84.9419 25.04 85.7819 25.28ZM77.3419 25.28V14.48C77.3419 14.16 77.2619 13.84 77.0619 13.56C77.0219 13.44 76.6219 13 75.9019 12.2L72.9419 14.56V23.6C74.0619 24.12 75.5419 24.68 77.3419 25.28ZM102.699 14.48C99.7794 16.52 97.4994 18.24 95.7794 19.72V23.88L99.1394 25.36L101.779 23.68L102.219 24.16C101.539 24.6 100.819 25.08 100.019 25.64L96.5394 28.08C94.7794 27.12 92.9394 26.44 91.0194 26.08C91.7794 25.28 92.1394 24.32 92.1394 23.16V12.48C93.9794 11.64 95.7794 10.56 97.5394 9.32L102.699 14.48ZM99.5394 15.8L95.7394 11.92V18.8L99.5394 15.8ZM113.426 25L109.786 28.12C108.506 27 106.626 26 104.106 25.08C104.786 24.32 105.146 23.36 105.146 22.2V6.24C105.146 5.44 104.706 4.6 103.826 3.68C104.826 3.92 105.706 4.36 106.466 4.96L106.906 4.92C108.146 3.76 109.546 3.08 111.026 2.88C109.706 3.84 109.066 5.04 109.066 6.52V23.36L111.986 25.2L112.946 24.48L113.426 25ZM124.09 25L120.45 28.12C119.17 27 117.29 26 114.77 25.08C115.45 24.32 115.81 23.36 115.81 22.2V6.24C115.81 5.44 115.37 4.6 114.49 3.68C115.49 3.92 116.37 4.36 117.13 4.96L117.57 4.92C118.81 3.76 120.21 3.08 121.69 2.88C120.37 3.84 119.73 5.04 119.73 6.52V23.36L122.65 25.2L123.61 24.48L124.09 25Z" fill="black"/>
<path d="M147.899 1C147.899 1 148.192 9.04462 151.425 12.2876C154.773 15.6451 163 15.589 163 15.589C163 15.589 154.759 15.8337 151.425 19.2638C148.117 22.6674 147.899 31 147.899 31C147.899 31 147.687 22.6617 144.373 19.2638C141.087 15.8937 133 15.589 133 15.589C133 15.589 141.073 15.5838 144.373 12.2876C147.613 9.05163 147.899 1 147.899 1Z" fill="black"/>
</svg>
