<svg width="31" height="30" viewBox="0 0 31 30" fill="none" xmlns="http://www.w3.org/2000/svg">
<path d="M11.4007 18.6187L11.4007 18.6188C12.9964 20.2022 13.8864 23.0009 14.3673 25.5005C14.6047 26.7343 14.7371 27.8654 14.8101 28.6882C14.8382 29.0048 14.8574 29.2752 14.8704 29.4877C6.90646 29.1685 0.566417 22.8535 0.502124 15.1187C0.716377 15.1338 0.990403 15.1557 1.3119 15.1869C2.13665 15.267 3.27028 15.4084 4.50677 15.6531C7.01158 16.1489 9.81679 17.0468 11.4007 18.6187ZM0.525848 14.077C1.00495 6.71531 7.18071 0.823394 14.8645 0.512545C14.8498 0.713632 14.829 0.965922 14.7999 1.25927C14.7211 2.05269 14.5817 3.14281 14.3398 4.33069C13.8495 6.73837 12.961 9.42455 11.4054 10.928L11.4054 10.928C9.81998 12.4604 7.02066 13.2688 4.51732 13.6808C3.28236 13.8841 2.15054 13.9863 1.32716 14.0375C1.0097 14.0573 0.738644 14.0695 0.525848 14.077ZM30.4744 14.0809C30.2555 14.0749 29.9743 14.0643 29.6438 14.046C28.8048 13.9994 27.6516 13.9029 26.3939 13.7034C23.8445 13.299 20.9954 12.4899 19.3871 10.9288C17.8342 9.42136 16.9457 6.73446 16.4545 4.32774C16.2122 3.14025 16.0722 2.05075 15.9928 1.25788C15.9632 0.961839 15.9421 0.707659 15.9273 0.505764C23.7096 0.715973 29.993 6.65044 30.4744 14.0809ZM29.6588 15.1787C29.9934 15.1487 30.2776 15.1282 30.4979 15.1146C30.4354 22.9198 23.9851 29.2797 15.9213 29.4944C15.9345 29.2812 15.954 29.0088 15.9825 28.6894C16.0559 27.867 16.1889 26.7365 16.4267 25.503C16.9083 23.0044 17.7984 20.205 19.3917 18.6181C20.9984 17.0179 23.8534 16.1194 26.4043 15.631C27.6635 15.39 28.8184 15.2542 29.6588 15.1787Z" fill="black" stroke="black"/>
</svg>
