<svg width="25" height="25" viewBox="0 0 25 25" fill="none" xmlns="http://www.w3.org/2000/svg">
<g clip-path="url(#clip0_1001_48)">
<mask id="path-1-inside-1_1001_48" fill="white">
<path d="M12.4094 -1C12.4094 -1 12.6726 6.24016 15.5827 9.15887C18.5954 12.1806 26 12.1301 26 12.1301C26 12.1301 18.583 12.3503 15.5827 15.4374C12.6056 18.5007 12.4094 26 12.4094 26C12.4094 26 12.2182 18.4955 9.23603 15.4374C6.27825 12.4044 -1 12.1301 -1 12.1301C-1 12.1301 6.26573 12.1254 9.23603 9.15887C12.1521 6.24647 12.4094 -1 12.4094 -1Z"/>
</mask>
<path d="M12.4094 -1L14.408 -1.07268L10.4106 -1.07095L12.4094 -1ZM15.5827 9.15887L16.999 7.74676L16.999 7.74676L15.5827 9.15887ZM26 12.1301L26.0593 14.1293C27.1545 14.0968 28.0197 13.1891 27.9997 12.0937C27.9797 10.9982 27.082 10.1227 25.9864 10.1302L26 12.1301ZM15.5827 15.4374L17.0169 16.8313L17.0169 16.8313L15.5827 15.4374ZM12.4094 26L10.41 26.0509L14.4087 26.0523L12.4094 26ZM9.23603 15.4374L10.6679 14.0411L10.6679 14.0411L9.23603 15.4374ZM-1 12.1301L-1.00131 10.1301L-1.0753 14.1287L-1 12.1301ZM9.23603 9.15887L10.6493 10.574L10.6493 10.574L9.23603 9.15887ZM12.4094 -1C10.4107 -0.927322 10.4107 -0.926916 10.4107 -0.926483C10.4107 -0.926302 10.4107 -0.92584 10.4107 -0.925477C10.4108 -0.92475 10.4108 -0.923912 10.4108 -0.922964C10.4109 -0.921066 10.411 -0.918726 10.4111 -0.915949C10.4113 -0.910394 10.4116 -0.90309 10.412 -0.89408C10.4128 -0.876063 10.4139 -0.851215 10.4154 -0.819893C10.4185 -0.757266 10.4233 -0.668663 10.4303 -0.556949C10.4445 -0.333689 10.4678 -0.0171337 10.5053 0.369668C10.5799 1.14046 10.7119 2.20433 10.9427 3.37247C11.3786 5.57939 12.2549 8.65382 14.1664 10.571L16.999 7.74676C16.0004 6.7452 15.2901 4.7402 14.8668 2.59737C14.668 1.59063 14.5523 0.662035 14.4867 -0.0159082C14.454 -0.353477 14.434 -0.625361 14.4224 -0.809449C14.4165 -0.901409 14.4128 -0.971206 14.4106 -1.01606C14.4095 -1.03848 14.4088 -1.05464 14.4084 -1.0642C14.4082 -1.06898 14.4081 -1.07211 14.408 -1.07353C14.408 -1.07425 14.408 -1.07454 14.408 -1.0744C14.408 -1.07433 14.408 -1.07415 14.408 -1.07386C14.408 -1.07372 14.408 -1.07342 14.408 -1.07335C14.408 -1.07303 14.408 -1.07268 12.4094 -1ZM14.1664 10.571C16.1557 12.5663 19.33 13.3797 21.5976 13.7513C22.7984 13.9481 23.8907 14.0422 24.6815 14.0875C25.0785 14.1103 25.4033 14.121 25.6325 14.1259C25.7472 14.1284 25.8383 14.1295 25.9027 14.1299C25.9349 14.1301 25.9605 14.1302 25.9791 14.1302C25.9884 14.1302 25.996 14.1302 26.0017 14.1302C26.0046 14.1301 26.0071 14.1301 26.009 14.1301C26.01 14.1301 26.0109 14.1301 26.0117 14.1301C26.0121 14.1301 26.0125 14.1301 26.0127 14.1301C26.0132 14.1301 26.0136 14.1301 26 12.1301C25.9864 10.1302 25.9868 10.1302 25.9871 10.1302C25.9872 10.1302 25.9875 10.1302 25.9877 10.1302C25.988 10.1302 25.9882 10.1302 25.9883 10.1302C25.9884 10.1302 25.9882 10.1302 25.9875 10.1302C25.9861 10.1302 25.983 10.1302 25.9782 10.1302C25.9686 10.1302 25.9523 10.1302 25.9295 10.13C25.884 10.1297 25.813 10.1289 25.7194 10.1269C25.5319 10.1228 25.2547 10.1138 24.9104 10.0941C24.2188 10.0544 23.2716 9.97229 22.2446 9.80397C20.0567 9.4454 18.0224 8.77316 16.999 7.74676L14.1664 10.571ZM26 12.1301C25.9407 10.131 25.9402 10.131 25.9398 10.131C25.9396 10.1311 25.9391 10.1311 25.9387 10.1311C25.938 10.1311 25.9371 10.1311 25.9361 10.1312C25.9342 10.1312 25.9318 10.1313 25.9289 10.1314C25.9232 10.1316 25.9156 10.1318 25.9064 10.1322C25.8878 10.1328 25.8623 10.1338 25.8301 10.1352C25.7658 10.138 25.6748 10.1423 25.5601 10.149C25.331 10.1622 25.0062 10.1845 24.6094 10.2213C23.8187 10.2947 22.7272 10.427 21.5284 10.6641C19.2581 11.1132 16.1087 12.0266 14.1485 14.0435L17.0169 16.8313C18.057 15.7611 20.1162 15.0209 22.3045 14.5881C23.335 14.3843 24.2853 14.2686 24.979 14.2042C25.3244 14.1722 25.6025 14.1532 25.7907 14.1423C25.8848 14.1369 25.9561 14.1335 26.0018 14.1315C26.0247 14.1305 26.0412 14.1299 26.0509 14.1296C26.0558 14.1294 26.0589 14.1293 26.0603 14.1292C26.061 14.1292 26.0613 14.1292 26.0612 14.1292C26.0611 14.1292 26.0609 14.1292 26.0606 14.1292C26.0604 14.1292 26.0601 14.1292 26.06 14.1292C26.0597 14.1292 26.0593 14.1293 26 12.1301ZM14.1485 14.0435C12.2112 16.0368 11.3408 19.2106 10.9135 21.5006C10.6879 22.7101 10.5629 23.8108 10.494 24.6081C10.4594 25.0082 10.4386 25.3354 10.4264 25.566C10.4203 25.6814 10.4163 25.7728 10.4138 25.8374C10.4125 25.8696 10.4117 25.8952 10.4111 25.9137C10.4108 25.923 10.4105 25.9305 10.4104 25.9361C10.4103 25.939 10.4102 25.9414 10.4102 25.9433C10.4101 25.9443 10.4101 25.9451 10.4101 25.9458C10.4101 25.9462 10.4101 25.9467 10.4101 25.9468C10.4101 25.9473 10.41 25.9477 12.4094 26C14.4087 26.0523 14.4087 26.0527 14.4087 26.053C14.4087 26.053 14.4086 26.0533 14.4086 26.0535C14.4086 26.0538 14.4086 26.0539 14.4086 26.054C14.4086 26.0541 14.4086 26.0537 14.4087 26.053C14.4087 26.0514 14.4088 26.0481 14.409 26.0431C14.4093 26.033 14.4099 26.0161 14.4108 25.9927C14.4126 25.9459 14.4157 25.8732 14.4208 25.7776C14.4309 25.5861 14.4488 25.3035 14.4791 24.9526C14.54 24.2481 14.6501 23.2824 14.8457 22.2342C15.2608 20.0088 15.9771 17.9012 17.0169 16.8313L14.1485 14.0435ZM12.4094 26C14.4087 25.9491 14.4087 25.9487 14.4087 25.9482C14.4087 25.9481 14.4087 25.9476 14.4087 25.9472C14.4086 25.9465 14.4086 25.9456 14.4086 25.9447C14.4085 25.9427 14.4085 25.9404 14.4084 25.9375C14.4082 25.9318 14.408 25.9243 14.4077 25.9151C14.4071 25.8965 14.4063 25.8709 14.405 25.8386C14.4026 25.774 14.3986 25.6825 14.3926 25.5671C14.3805 25.3363 14.3599 25.0088 14.3256 24.6085C14.2571 23.8107 14.1326 22.7094 13.9072 21.4993C13.4807 19.2088 12.6102 16.0328 10.6679 14.0411L7.80416 16.8337C8.84409 17.9001 9.56026 20.0054 9.97482 22.2316C10.17 23.28 10.2797 24.2459 10.3402 24.9507C10.3704 25.3018 10.388 25.5845 10.3981 25.7761C10.4031 25.8718 10.4062 25.9445 10.4079 25.9913C10.4088 26.0147 10.4094 26.0316 10.4097 26.0417C10.4099 26.0467 10.41 26.05 10.41 26.0516C10.41 26.0524 10.4101 26.0527 10.4101 26.0526C10.41 26.0525 10.41 26.0524 10.41 26.0521C10.41 26.052 10.41 26.0517 10.41 26.0516C10.41 26.0513 10.41 26.0509 12.4094 26ZM10.6679 14.0411C8.73486 12.0588 5.64022 11.1431 3.40954 10.6869C2.23175 10.4461 1.15974 10.3083 0.383112 10.2304C-0.0066298 10.1913 -0.325607 10.1669 -0.550684 10.1521C-0.663309 10.1447 -0.752677 10.1398 -0.815913 10.1365C-0.847539 10.1349 -0.872653 10.1338 -0.890897 10.133C-0.90002 10.1326 -0.907428 10.1322 -0.913076 10.132C-0.9159 10.1319 -0.918284 10.1318 -0.920223 10.1317C-0.921192 10.1317 -0.92205 10.1317 -0.922797 10.1316C-0.923169 10.1316 -0.923646 10.1316 -0.923832 10.1316C-0.924279 10.1316 -0.924699 10.1316 -1 12.1301C-1.0753 14.1287 -1.07567 14.1287 -1.076 14.1287C-1.07608 14.1287 -1.07639 14.1287 -1.07654 14.1287C-1.07684 14.1287 -1.07704 14.1287 -1.07712 14.1287C-1.0773 14.1286 -1.07704 14.1287 -1.07635 14.1287C-1.07498 14.1287 -1.0719 14.1289 -1.06716 14.1291C-1.05769 14.1295 -1.04157 14.1302 -1.01917 14.1314C-0.974343 14.1337 -0.904454 14.1375 -0.812287 14.1436C-0.627781 14.1557 -0.355037 14.1764 -0.0162266 14.2104C0.664248 14.2787 1.59666 14.399 2.60816 14.6058C4.75605 15.0451 6.77942 15.7829 7.80416 16.8337L10.6679 14.0411ZM-1 12.1301C-0.998692 14.1301 -0.998265 14.1301 -0.997811 14.1301C-0.997622 14.1301 -0.997139 14.1301 -0.996761 14.1301C-0.996005 14.1301 -0.995138 14.1301 -0.994159 14.1301C-0.992202 14.1301 -0.9898 14.1301 -0.986959 14.1301C-0.981277 14.1301 -0.973836 14.13 -0.964683 14.13C-0.946378 14.1299 -0.92121 14.1296 -0.889536 14.1292C-0.826205 14.1283 -0.736765 14.1266 -0.624081 14.1233C-0.398892 14.1168 -0.0798221 14.104 0.310055 14.0789C1.08682 14.029 2.15969 13.9292 3.33942 13.7286C5.56754 13.3498 8.68702 12.5338 10.6493 10.574L7.82271 7.74376C6.81474 8.75045 4.8162 9.42012 2.66888 9.78525C1.66089 9.95665 0.731686 10.0435 0.0533064 10.0872C-0.284389 10.1089 -0.55616 10.1197 -0.739918 10.125C-0.831708 10.1276 -0.901268 10.1289 -0.945818 10.1296C-0.968086 10.1299 -0.984079 10.13 -0.99345 10.1301C-0.998135 10.1301 -1.00116 10.1301 -1.00249 10.1301C-1.00315 10.1301 -1.00339 10.1301 -1.00319 10.1301C-1.00309 10.1301 -1.00289 10.1301 -1.00258 10.1301C-1.00242 10.1301 -1.0021 10.1301 -1.00202 10.1301C-1.00168 10.1301 -1.00131 10.1301 -1 12.1301ZM10.6493 10.574C12.5669 8.65881 13.4434 5.58155 13.8785 3.37404C14.1089 2.20523 14.2403 1.14055 14.3144 0.369137C14.3516 -0.0179806 14.3748 -0.334819 14.3887 -0.558289C14.3957 -0.670109 14.4004 -0.7588 14.4034 -0.821494C14.4049 -0.852849 14.406 -0.877725 14.4068 -0.895765C14.4072 -0.904785 14.4075 -0.912099 14.4077 -0.917662C14.4078 -0.920443 14.4079 -0.922786 14.4079 -0.924687C14.408 -0.925637 14.408 -0.926477 14.408 -0.927205C14.408 -0.927568 14.4081 -0.928031 14.4081 -0.928213C14.4081 -0.928647 14.4081 -0.929054 12.4094 -1C10.4106 -1.07095 10.4106 -1.0713 10.4106 -1.07162C10.4106 -1.07169 10.4107 -1.07199 10.4107 -1.07213C10.4107 -1.07242 10.4107 -1.0726 10.4107 -1.07267C10.4107 -1.07281 10.4107 -1.07252 10.4106 -1.07181C10.4106 -1.07039 10.4105 -1.06726 10.4103 -1.06248C10.4099 -1.05292 10.4092 -1.03675 10.4081 -1.01432C10.4059 -0.969444 10.4022 -0.899605 10.3965 -0.807591C10.385 -0.623394 10.3652 -0.351349 10.3328 -0.0136039C10.2676 0.664708 10.1524 1.59367 9.95399 2.60053C9.53144 4.74435 8.82122 6.74652 7.82271 7.74376L10.6493 10.574Z" fill="#422D2D" mask="url(#path-1-inside-1_1001_48)"/>
</g>
<defs>
<clipPath id="clip0_1001_48">
<rect width="25" height="25" fill="white"/>
</clipPath>
</defs>
</svg>
