<svg width="34" height="34" viewBox="0 0 34 34" fill="none" xmlns="http://www.w3.org/2000/svg">
<mask id="path-1-inside-1_1189_3623" fill="white">
<path d="M16.7185 -2C16.7185 -2 17.086 8.10673 21.1482 12.181C25.3537 16.3991 35.69 16.3287 35.69 16.3287C35.69 16.3287 25.3364 16.636 21.1482 20.9454C16.9924 25.2215 16.7185 35.69 16.7185 35.69C16.7185 35.69 16.4517 25.2143 12.2887 20.9454C8.1599 16.7115 -2 16.3287 -2 16.3287C-2 16.3287 8.14242 16.3221 12.2887 12.181C16.3594 8.11553 16.7185 -2 16.7185 -2Z"/>
</mask>
<path d="M16.7185 -2L18.8171 -2.07631L14.6198 -2.07449L16.7185 -2ZM21.1482 12.181L22.6353 10.6983L21.1482 12.181ZM35.69 16.3287L35.7523 18.4278C36.9022 18.3936 37.8106 17.4406 37.7896 16.2904C37.7687 15.1402 36.8261 14.2209 35.6757 14.2287L35.69 16.3287ZM21.1482 20.9454L22.6542 22.409L22.6542 22.409L21.1482 20.9454ZM16.7185 35.69L14.6192 35.7435L18.8178 35.7449L16.7185 35.69ZM12.2887 20.9454L13.7922 19.4792L12.2887 20.9454ZM-2 16.3287L-2.00137 14.2287L-2.07907 18.4272L-2 16.3287ZM12.2887 12.181L13.7727 13.6669L13.7727 13.6669L12.2887 12.181ZM16.7185 -2C14.6199 -1.92369 14.6199 -1.92325 14.6199 -1.92278C14.6199 -1.92257 14.6199 -1.92206 14.6199 -1.92164C14.62 -1.9208 14.62 -1.9198 14.62 -1.91866C14.6201 -1.91636 14.6202 -1.91345 14.6204 -1.90993C14.6207 -1.90289 14.621 -1.89341 14.6215 -1.88157C14.6226 -1.85788 14.624 -1.8247 14.6261 -1.78251C14.6303 -1.69816 14.6367 -1.57773 14.6464 -1.42521C14.6657 -1.12033 14.6977 -0.686166 14.7491 -0.154736C14.8518 0.905178 15.0332 2.36686 15.3498 3.96957C15.9561 7.03919 17.1507 11.1459 19.6611 13.6637L22.6353 10.6983C21.0835 9.14185 20.0632 6.15805 19.4702 3.15573C19.1871 1.72247 19.0228 0.402829 18.9296 -0.55959C18.8831 -1.03933 18.8547 -1.42658 18.838 -1.69033C18.8297 -1.82212 18.8243 -1.9228 18.8211 -1.98849C18.8195 -2.02133 18.8184 -2.04539 18.8177 -2.0602C18.8174 -2.0676 18.8172 -2.07268 18.8171 -2.07539C18.8171 -2.07674 18.817 -2.0775 18.817 -2.07766C18.817 -2.07774 18.817 -2.07766 18.817 -2.07744C18.817 -2.07733 18.8171 -2.07705 18.8171 -2.07699C18.8171 -2.07667 18.8171 -2.07631 16.7185 -2ZM19.6611 13.6637C22.271 16.2814 26.5049 17.3925 29.6565 17.909C31.3026 18.1788 32.8023 18.3081 33.8891 18.3703C34.4341 18.4016 34.8793 18.4162 35.1921 18.423C35.3485 18.4264 35.4722 18.4278 35.5588 18.4284C35.6022 18.4287 35.6363 18.4288 35.6607 18.4288C35.6729 18.4288 35.6827 18.4287 35.69 18.4287C35.6936 18.4287 35.6966 18.4287 35.699 18.4287C35.7002 18.4287 35.7013 18.4287 35.7021 18.4287C35.7026 18.4287 35.7031 18.4287 35.7033 18.4287C35.7038 18.4287 35.7043 18.4287 35.69 16.3287C35.6757 14.2287 35.6761 14.2287 35.6764 14.2287C35.6765 14.2287 35.6768 14.2287 35.6769 14.2287C35.6772 14.2287 35.6773 14.2287 35.6772 14.2287C35.6771 14.2287 35.6764 14.2287 35.675 14.2287C35.6723 14.2288 35.6672 14.2288 35.6597 14.2288C35.6448 14.2288 35.6204 14.2287 35.587 14.2285C35.5202 14.2281 35.4176 14.2269 35.2832 14.224C35.0143 14.2181 34.6192 14.2053 34.1294 14.1772C33.1468 14.1209 31.7995 14.0042 30.3358 13.7643C27.268 13.2615 24.2309 12.2987 22.6353 10.6983L19.6611 13.6637ZM35.69 16.3287C35.6277 14.2296 35.6272 14.2296 35.6267 14.2297C35.6265 14.2297 35.626 14.2297 35.6256 14.2297C35.6247 14.2297 35.6237 14.2297 35.6225 14.2298C35.6201 14.2299 35.6171 14.23 35.6135 14.2301C35.6062 14.2303 35.5965 14.2306 35.5843 14.2311C35.5599 14.232 35.5258 14.2333 35.4825 14.2351C35.3959 14.2389 35.2724 14.2448 35.1159 14.2538C34.8031 14.2719 34.3578 14.3025 33.8128 14.353C32.7257 14.4539 31.2265 14.6357 29.5822 14.9609C26.4272 15.585 22.2194 16.83 19.6423 19.4818L22.6542 22.409C24.2652 20.7514 27.3283 19.6881 30.3971 19.0811C31.8647 18.7909 33.2157 18.6265 34.2008 18.5351C34.6919 18.4895 35.0882 18.4624 35.358 18.4468C35.4928 18.439 35.5958 18.4342 35.6629 18.4313C35.6964 18.4298 35.721 18.4289 35.7361 18.4283C35.7436 18.4281 35.7488 18.4279 35.7515 18.4278C35.7529 18.4278 35.7536 18.4277 35.7537 18.4277C35.7538 18.4277 35.7537 18.4277 35.7535 18.4277C35.7534 18.4277 35.7531 18.4278 35.753 18.4278C35.7527 18.4278 35.7523 18.4278 35.69 16.3287ZM19.6423 19.4818C17.0932 22.1046 15.9048 26.3505 15.3105 29.5361C15.0007 31.1966 14.8288 32.7097 14.734 33.8066C14.6865 34.3566 14.658 34.8056 14.6413 35.1207C14.6329 35.2784 14.6275 35.4028 14.6241 35.4898C14.6225 35.5334 14.6213 35.5676 14.6205 35.5919C14.6201 35.6041 14.6198 35.6138 14.6196 35.6211C14.6195 35.6247 14.6194 35.6276 14.6193 35.63C14.6193 35.6311 14.6193 35.6322 14.6192 35.633C14.6192 35.6334 14.6192 35.6339 14.6192 35.6342C14.6192 35.6346 14.6192 35.6351 16.7185 35.69C18.8178 35.7449 18.8177 35.7453 18.8177 35.7456C18.8177 35.7457 18.8177 35.7459 18.8177 35.746C18.8177 35.7462 18.8177 35.7463 18.8177 35.7462C18.8177 35.746 18.8177 35.7452 18.8178 35.7437C18.8179 35.7408 18.818 35.7355 18.8183 35.7277C18.8188 35.7122 18.8196 35.6871 18.821 35.6529C18.8236 35.5845 18.8282 35.4799 18.8354 35.3429C18.8499 35.0689 18.8753 34.6666 18.9184 34.1683C19.0048 33.1688 19.1611 31.7975 19.4393 30.3063C20.0209 27.1887 21.0474 24.0623 22.6542 22.409L19.6423 19.4818ZM16.7185 35.69C18.8178 35.6365 18.8178 35.6361 18.8178 35.6356C18.8178 35.6354 18.8177 35.6349 18.8177 35.6345C18.8177 35.6336 18.8177 35.6326 18.8177 35.6314C18.8176 35.6291 18.8175 35.6261 18.8174 35.6225C18.8172 35.6153 18.8169 35.6055 18.8165 35.5933C18.8158 35.569 18.8146 35.5347 18.8129 35.4912C18.8096 35.4041 18.8043 35.2796 18.796 35.1218C18.7795 34.8064 18.7513 34.3571 18.704 33.8068C18.6098 32.7092 18.4386 31.1952 18.1292 29.5341C17.5359 26.3477 16.3474 22.0995 13.7922 19.4792L10.7853 22.4115C12.393 24.0602 13.4194 27.1842 14.0002 30.303C14.2779 31.7943 14.4336 33.1661 14.5194 34.1661C14.5622 34.6647 14.5874 35.0671 14.6017 35.3413C14.6089 35.4783 14.6134 35.583 14.616 35.6515C14.6173 35.6857 14.6181 35.7108 14.6186 35.7263C14.6189 35.734 14.619 35.7394 14.6191 35.7423C14.6192 35.7437 14.6192 35.7445 14.6192 35.7447C14.6192 35.7448 14.6192 35.7448 14.6192 35.7446C14.6192 35.7445 14.6192 35.7442 14.6192 35.7441C14.6192 35.7438 14.6192 35.7435 16.7185 35.69ZM13.7922 19.4792C11.2509 16.8733 7.11633 15.6257 4.01678 14.9919C2.40144 14.6616 0.929136 14.4723 -0.138349 14.3652C-0.67359 14.3115 -1.11086 14.278 -1.41804 14.2579C-1.57171 14.2478 -1.6931 14.2411 -1.77818 14.2367C-1.82074 14.2346 -1.85424 14.233 -1.87819 14.232C-1.89016 14.2314 -1.89976 14.231 -1.9069 14.2307C-1.91047 14.2306 -1.91343 14.2305 -1.91577 14.2304C-1.91695 14.2303 -1.91796 14.2303 -1.91882 14.2303C-1.91925 14.2303 -1.91978 14.2302 -1.91999 14.2302C-1.92048 14.2302 -1.92093 14.2302 -2 16.3287C-2.07907 18.4272 -2.07944 18.4272 -2.07977 18.4272C-2.07983 18.4272 -2.08013 18.4272 -2.08025 18.4272C-2.08049 18.4272 -2.08058 18.4272 -2.08052 18.4272C-2.0804 18.4272 -2.07967 18.4272 -2.07834 18.4272C-2.07569 18.4274 -2.07064 18.4276 -2.06327 18.4279C-2.04852 18.4285 -2.02447 18.4296 -1.9916 18.4313C-1.92585 18.4347 -1.82492 18.4403 -1.69272 18.4489C-1.42814 18.4663 -1.03942 18.4958 -0.557655 18.5442C0.408868 18.6412 1.73459 18.8121 3.17533 19.1068C6.18794 19.7228 9.19771 20.7836 10.7853 22.4115L13.7922 19.4792ZM-2 16.3287C-1.99863 18.4287 -1.99817 18.4287 -1.99767 18.4287C-1.99746 18.4287 -1.99692 18.4287 -1.99648 18.4287C-1.99561 18.4287 -1.99459 18.4287 -1.99341 18.4287C-1.99105 18.4287 -1.98807 18.4287 -1.98448 18.4287C-1.9773 18.4286 -1.96768 18.4286 -1.95568 18.4285C-1.93167 18.4283 -1.89812 18.428 -1.85554 18.4274C-1.77038 18.4262 -1.64896 18.4239 -1.49528 18.4194C-1.1881 18.4105 -0.750882 18.3931 -0.215668 18.3586C0.851623 18.29 2.32442 18.153 3.94153 17.878C7.03785 17.3515 11.1985 16.2378 13.7727 13.6669L10.8048 10.6952C9.23263 12.2653 6.24894 13.2254 3.23746 13.7375C1.80068 13.9818 0.478731 14.1053 -0.485254 14.1673C-0.965678 14.1982 -1.35323 14.2136 -1.61691 14.2212C-1.74866 14.225 -1.84919 14.2269 -1.91463 14.2278C-1.94734 14.2283 -1.97125 14.2285 -1.98588 14.2286C-1.99319 14.2287 -1.99818 14.2287 -2.00078 14.2287C-2.00209 14.2287 -2.00279 14.2287 -2.00289 14.2287C-2.00294 14.2287 -2.00284 14.2287 -2.00259 14.2287C-2.00246 14.2287 -2.00216 14.2287 -2.0021 14.2287C-2.00175 14.2287 -2.00137 14.2287 -2 16.3287ZM13.7727 13.6669C16.2906 11.1522 17.4853 7.04255 18.0905 3.97204C18.4065 2.36849 18.5872 0.905746 18.6891 -0.154986C18.7403 -0.686834 18.772 -1.12137 18.791 -1.42652C18.8005 -1.57919 18.8069 -1.69974 18.811 -1.78417C18.813 -1.8264 18.8145 -1.85962 18.8155 -1.88333C18.816 -1.89519 18.8164 -1.90467 18.8166 -1.91172C18.8168 -1.91525 18.8169 -1.91816 18.817 -1.92046C18.817 -1.92161 18.817 -1.92261 18.8171 -1.92345C18.8171 -1.92387 18.8171 -1.92439 18.8171 -1.9246C18.8171 -1.92507 18.8171 -1.92551 16.7185 -2C14.6198 -2.07449 14.6198 -2.07485 14.6198 -2.07517C14.6198 -2.07523 14.6198 -2.07551 14.6198 -2.07563C14.6198 -2.07585 14.6198 -2.07592 14.6198 -2.07585C14.6198 -2.07569 14.6198 -2.07493 14.6198 -2.07358C14.6197 -2.07088 14.6195 -2.06579 14.6191 -2.05838C14.6185 -2.04357 14.6175 -2.0195 14.6159 -1.98664C14.6127 -1.92091 14.6074 -1.82016 14.5992 -1.68829C14.5827 -1.42437 14.5545 -1.03687 14.5084 -0.556864C14.4158 0.406112 14.2523 1.72635 13.9697 3.15986C13.3777 6.16349 12.3576 9.14433 10.8048 10.6952L13.7727 13.6669Z" fill="black" mask="url(#path-1-inside-1_1189_3623)"/>
</svg>
