<svg width="46" height="45" viewBox="0 0 46 45" fill="none" xmlns="http://www.w3.org/2000/svg">
<path d="M23.1995 6.72663C23.6498 8.95197 24.3409 11.453 25.4075 13.6406C24.5625 13.8607 23.7274 13.9887 22.9189 13.9972C22.0667 14.0062 21.1796 13.8832 20.2796 13.6609C21.3519 11.4703 22.045 8.96192 22.4956 6.73036C22.6337 6.04633 22.7498 5.38391 22.8473 4.75894C22.9451 5.38275 23.0614 6.04389 23.1995 6.72663ZM22.9295 14.9971C23.8976 14.9869 24.8898 14.8234 25.8826 14.5478C26.4566 15.5669 27.1245 16.4915 27.9022 17.2529C28.5646 17.9015 29.3419 18.4662 30.1942 18.9582C29.947 19.945 29.8057 20.9273 29.8078 21.8819C29.8102 22.9499 29.9921 24.0512 30.3007 25.1535C29.4036 25.6854 28.5873 26.2922 27.8977 26.9849C27.1728 27.7129 26.5436 28.5803 25.9973 29.5333C24.8738 29.2148 23.7507 29.0272 22.6623 29.0267C21.6783 29.0261 20.6638 29.1784 19.6451 29.4419C19.11 28.5241 18.4965 27.6886 17.7929 26.9843C17.0854 26.276 16.2436 25.6573 15.3184 25.1166C15.5985 24.1186 15.766 23.1213 15.7783 22.1493C15.7912 21.1324 15.635 20.0824 15.3586 19.0301C16.2648 18.5216 17.0906 17.9337 17.7882 17.2536C18.5629 16.4983 19.2287 15.5813 19.8011 14.5702C20.8566 14.8492 21.9096 15.0079 22.9295 14.9971ZM34.9925 9.55451C34.7367 9.90997 34.4773 10.2807 34.2178 10.6643C32.7771 12.7945 31.3038 15.3683 30.4774 17.9648C29.7783 17.5431 29.1445 17.0697 28.6018 16.5383C27.944 15.8943 27.3662 15.1125 26.8592 14.2417C29.392 13.36 31.8796 11.8329 33.933 10.3459C34.2992 10.0808 34.6531 9.81577 34.9925 9.55451ZM30.8078 21.8797C30.8061 21.0906 30.9132 20.2733 31.1053 19.4438C33.5432 20.6443 36.4303 21.3381 38.9718 21.7447C39.4183 21.8161 39.8558 21.8789 40.2806 21.9342C39.8484 22.0047 39.4028 22.0834 38.9481 22.1712C36.4441 22.6546 33.6091 23.4239 31.2017 24.6572C30.953 23.7115 30.8098 22.7778 30.8078 21.8797ZM28.6063 27.6904C29.1808 27.1135 29.8583 26.5972 30.6081 26.1356C31.4504 28.5785 32.8404 30.9785 34.1996 32.9799C34.557 33.5062 34.9142 34.0077 35.2616 34.4783C34.7904 34.1301 34.2883 33.7721 33.7613 33.4139C31.7756 32.0645 29.3975 30.6852 26.9742 29.8423C27.4539 29.0338 27.9954 28.304 28.6063 27.6904ZM22.6617 30.0267C23.5839 30.0271 24.5436 30.1769 25.5153 30.4373C24.3489 32.7879 23.6177 35.52 23.1556 37.9378C23.0362 38.5626 22.9342 39.1698 22.8471 39.7483C22.7601 39.1689 22.6582 38.5606 22.5388 37.9348C22.0719 35.4873 21.3289 32.7181 20.1366 30.3494C20.9972 30.1428 21.8451 30.0262 22.6617 30.0267ZM17.0854 27.691C17.6697 28.2759 18.1905 28.967 18.6544 29.7315C16.1456 30.5468 13.663 31.9541 11.6003 33.3303C11.1617 33.623 10.7402 33.9155 10.3393 34.2025C10.6332 33.8191 10.9329 33.4162 11.2329 32.9968C12.668 30.9903 14.1423 28.5652 15.0087 26.0954C15.7884 26.5676 16.4923 27.0973 17.0854 27.691ZM14.7784 22.1367C14.7681 22.9447 14.638 23.7803 14.4159 24.6261C12.0752 23.4416 9.34407 22.6878 6.92777 22.2055C6.41072 22.1023 5.90577 22.0111 5.41931 21.9305C5.8983 21.8673 6.39515 21.7942 6.90376 21.7098C9.33522 21.3062 12.0898 20.6347 14.4474 19.5028C14.668 20.4009 14.7892 21.2862 14.7784 22.1367ZM17.0901 16.5376C16.5097 17.1035 15.8243 17.6037 15.0663 18.0458C14.2824 15.6701 12.9613 13.3306 11.6658 11.3797C11.2798 10.7983 10.8935 10.2478 10.5206 9.73692C11.0308 10.1089 11.5805 10.4942 12.161 10.8793C14.1092 12.1718 16.4448 13.4904 18.8168 14.2764C18.3136 15.1335 17.7411 15.9029 17.0901 16.5376Z" fill="black" stroke="black"/>
</svg>
