<svg width="234" height="43" viewBox="0 0 234 43" fill="none" xmlns="http://www.w3.org/2000/svg">
<path d="M233.768 9.29608C233.384 11.5041 232.04 12.8001 231.128 13.2321C230.792 13.4241 230.648 13.3761 230.648 13.2321C230.6 13.0881 230.552 13.1361 230.888 12.8001C231.608 12.2241 232.424 11.0241 232.664 9.72808C233.528 5.07208 230.408 0.896076 222.008 0.896076C214.616 0.896076 206.888 5.74408 200.168 11.0721C194.456 15.5841 187.928 22.0161 181.784 28.3521C177.896 32.3361 173.96 36.8001 175.16 37.4721C175.784 37.8561 177.032 37.1361 179.192 35.6481C180.632 34.6401 182.648 32.9121 184.568 31.2801C184.76 31.1361 185 30.8961 185.192 31.1361C185.384 31.3281 185.192 31.5201 185.048 31.6641C183.752 32.9121 181.064 35.0721 179.336 36.3201C177.128 37.8561 175.688 38.7201 174.488 38.3841C173.192 38.0001 172.808 36.5121 174.104 34.2561C173.288 34.9761 172.28 35.6961 171.416 36.3201C169.256 37.8561 167.48 38.6241 166.328 38.3841C165.128 38.0961 164.408 36.4161 165.896 34.0641C166.952 32.4321 169.112 29.4561 172.088 26.3361C179.048 19.2321 183.848 14.9601 189.512 10.5921C193.304 7.66408 198.632 4.97608 202.568 4.97608C203.672 4.97608 204.824 5.12008 205.64 5.45608C210.92 2.33608 216.584 0.0800781 222.296 0.0800781C231.608 0.0800781 234.584 4.97608 233.768 9.29608ZM204.584 6.08008C204.104 5.84008 203.48 5.69608 202.568 5.69608C198.776 5.55208 194.408 8.96008 191.528 11.1681C188.168 13.8081 181.208 19.8561 173.336 28.0641C169.496 32.0961 165.752 36.6561 167 37.4721C167.528 37.8561 169.112 37.1361 171.272 35.6481C173.048 34.3521 175.784 31.9521 175.784 31.9521C176.984 30.4161 178.568 28.6881 180.536 26.6241C183.8 23.3121 192.296 14.5761 199.4 9.53608C201.08 8.33608 202.808 7.13608 204.584 6.08008Z" fill="black"/>
<path d="M170.792 23.9838C172.376 24.8958 170.744 26.9118 168.92 28.2078C167.384 29.2638 163.832 30.4638 162.872 29.8878C159.896 32.6718 156.536 36.8478 158.312 37.6158C159.176 37.9518 161.096 37.3278 163.064 36.0798C165.368 34.6398 167.816 32.4798 169.16 31.2318C169.352 31.0398 169.688 30.8478 169.832 31.0398C170.024 31.2798 169.784 31.5198 169.592 31.7118C167.96 33.1998 166.184 34.7358 164.072 36.1758C162.392 37.3758 160.088 38.5278 158.216 38.3838C156.968 38.2398 155.864 37.5198 156.056 35.7918C156.104 34.8798 156.728 32.5278 159.8 29.5518C163.448 26.0958 169.112 23.0238 170.792 23.9838ZM170.504 24.4158C169.928 23.9358 165.512 27.2958 163.16 29.5998C163.88 29.8878 166.28 29.0718 168.392 27.3918C169.976 26.1438 170.984 24.7998 170.504 24.4158Z" fill="black"/>
<path d="M162.177 24.5597C161.985 25.1357 161.505 25.8557 161.169 26.2877C160.305 27.2957 159.537 28.1597 158.433 29.3117C155.985 31.8557 152.577 34.8797 151.377 35.7917C150.129 36.7517 147.537 38.6717 145.761 38.3357C143.937 37.9517 143.697 35.9837 145.329 33.4397C144.321 34.3997 143.745 34.9757 143.169 35.4557C141.729 36.6557 139.377 38.3357 137.889 38.3357C134.721 38.3357 135.921 34.5917 139.329 30.8957C141.009 29.0717 145.041 26.0957 148.449 24.8957C146.337 24.8957 144.465 25.2797 143.313 25.7117C142.065 26.1437 141.777 27.1037 141.537 26.6717C141.249 26.1437 141.585 25.2797 142.977 24.8477C143.985 24.4637 147.537 24.0797 150.081 24.3677C150.177 24.3677 150.417 24.4157 150.417 24.5117C150.417 24.6557 150.177 24.7517 150.033 24.8957C145.521 27.8237 141.201 32.2397 139.617 34.0157C138.129 35.7437 137.217 37.1837 137.937 37.5197C138.753 37.8557 141.345 36.1277 142.833 34.8797C145.185 32.8637 147.249 30.9917 148.401 29.8877C150.753 27.6317 152.673 25.9997 155.217 25.0877C155.553 24.9437 155.889 24.8477 156.081 25.0877C156.225 25.2317 156.129 25.3757 155.841 25.6157C151.617 28.8317 149.025 32.0477 147.537 33.9677C146.145 35.7437 145.473 37.1357 146.193 37.5197C147.009 37.9517 149.553 36.3677 150.945 35.2157C153.249 33.3917 155.985 30.6557 158.433 27.3437C159.825 25.4237 158.577 25.0877 159.009 24.5597C159.393 24.0797 162.561 23.0717 162.177 24.5597Z" fill="black"/>
<path d="M182.791 14.912C182.359 17.12 181.015 18.416 180.151 18.848C179.767 19.04 179.671 18.992 179.623 18.848C179.575 18.656 179.527 18.704 179.911 18.416C180.583 17.84 181.399 16.64 181.639 15.296C182.503 10.688 179.911 6.56002 171.319 6.65601C164.407 6.75202 156.151 11.696 149.431 16.976C146.455 19.376 142.231 23.072 140.071 25.136C140.743 25.136 142.711 25.04 143.767 25.136C143.863 25.136 144.151 25.184 144.007 25.472C143.911 25.664 143.671 25.712 143.479 25.712C142.663 25.712 140.455 25.76 139.351 25.856C138.487 26.72 137.767 27.44 136.759 28.496C131.815 33.632 129.079 36.848 130.375 37.616C131.191 38.096 133.351 36.8 134.935 35.6C136.039 34.736 138.535 32.672 140.071 31.232C140.263 31.088 140.551 30.896 140.743 31.088C140.935 31.376 140.599 31.616 140.407 31.856C139.207 32.96 136.855 34.976 135.079 36.32C132.967 37.904 131.047 38.864 129.655 38.384C128.119 37.808 128.167 35.936 129.271 34.112C130.327 32.384 132.679 29.696 136.471 25.856C135.655 25.856 134.695 25.952 133.543 26.048C133.159 26.096 133.111 25.952 133.159 25.808C133.207 25.616 133.447 25.568 133.591 25.52C134.167 25.424 136.039 25.28 137.143 25.232C140.647 21.728 144.487 18.368 148.471 15.44C155.431 10.4 164.071 6.03202 171.415 5.93602C180.727 5.84002 183.559 10.544 182.791 14.912Z" fill="black"/>
<path d="M136.194 25.5681C136.146 26.1921 135.666 26.5281 135.474 26.4801C135.33 26.4321 135.138 26.2401 134.898 26.0961C134.466 25.8561 134.274 25.7601 133.65 25.7121C131.682 25.6161 127.602 28.7361 124.338 31.8081C121.266 34.7361 120.786 35.4081 118.242 38.6241C117.666 38.6241 117.57 37.2321 117.81 36.7521C119.106 34.3041 121.458 31.3761 124.002 28.7361C125.538 27.1041 127.218 25.6161 128.37 24.8961C129.138 24.3681 130.53 24.0801 131.73 24.0801C129.762 25.3761 127.026 27.7761 124.962 30.1761L125.106 30.3681C127.746 28.0641 132.738 23.6961 135.09 24.1281C135.906 24.2721 136.242 24.8481 136.194 25.5681Z" fill="black"/>
<path d="M125.132 24.2718C121.004 27.9678 117.068 32.0478 115.388 34.0158C113.9 35.8398 112.892 37.1838 113.612 37.5198C114.332 37.8558 116.924 36.0318 118.268 34.9758C119.804 33.7758 121.676 32.0958 122.828 31.0878C122.972 30.9438 123.26 30.7998 123.404 31.0398C123.548 31.3278 123.356 31.4718 123.164 31.6638C121.772 32.8638 119.852 34.4958 118.7 35.4558C117.26 36.6078 114.812 38.3358 113.564 38.3358C111.932 38.3358 111.02 36.8958 112.796 34.2558C110.012 36.6078 107.42 38.3358 105.884 38.3358C102.62 38.3358 104.684 33.3918 107.996 30.0318C111.788 26.1438 118.22 22.8318 120.284 24.0318C120.908 24.4158 121.1 25.5198 119.228 27.2958C121.148 25.7118 122.444 24.7518 123.26 24.4638C123.884 24.2718 124.508 24.2238 125.132 24.2718ZM119.9 24.6558C118.988 23.9358 115.292 26.3358 110.204 31.1838C107.276 34.0158 104.972 37.1358 106.076 37.6158C106.94 37.9998 111.164 35.0718 115.244 30.8958C117.116 28.9758 120.908 25.4238 119.9 24.6558Z" fill="black"/>
<path d="M138.433 12.1764C138.337 12.1764 138.097 11.9364 137.761 11.6964C136.801 10.7364 135.265 10.0164 133.393 10.0164C125.281 10.0164 115.777 18.7044 109.729 25.0404C105.217 29.7444 102.289 33.6324 100.465 36.1284C99.2653 37.8084 98.6893 38.8644 97.9693 38.9124C97.0573 39.0084 97.2013 37.7604 97.7293 36.6564C98.4013 35.2164 100.177 32.7204 102.385 30.0804C103.921 27.0084 103.585 24.5604 102.289 22.5924C101.617 23.3604 100.945 24.0324 100.465 24.6564C87.6973 39.4404 76.4653 42.0804 70.5613 42.0804C66.6253 42.0804 61.8253 40.7844 62.7853 34.4484C63.4093 29.9364 67.1533 24.9924 72.7693 21.5844C73.7293 21.0084 74.7853 20.4804 75.7933 20.0004C74.3053 18.7524 73.8733 16.9764 74.1613 15.3924C75.4573 8.52838 84.9613 5.98438 92.3053 5.98438C102.817 5.98438 111.649 8.52838 114.385 9.24838C115.105 9.44038 117.073 10.0164 118.033 10.4484C118.465 10.6404 119.137 10.9764 118.945 11.2164C118.801 11.3124 118.321 10.9764 117.985 10.9764C117.697 10.9284 117.505 10.9764 117.265 10.9764C113.233 11.3124 106.849 17.6484 102.769 22.0644C103.873 23.7444 104.545 25.9044 103.681 28.4964C105.505 26.4324 107.425 24.4164 109.201 22.7364C117.025 15.4404 125.137 9.48838 133.249 9.48838C135.313 9.48838 137.665 10.1604 138.433 11.3124C138.673 11.6484 138.721 12.0324 138.433 12.1764ZM116.545 10.4964C115.921 10.2564 115.297 10.1124 114.481 9.96838C110.065 9.00838 102.193 7.61638 92.3053 7.61638C85.2013 7.61638 75.8413 10.1124 74.8333 15.6324C74.5453 16.9764 75.0253 18.5604 76.4653 19.7124C81.3133 17.6484 86.5933 16.7364 90.7213 16.9764C95.9053 17.2164 99.4093 18.5124 101.665 20.6724C106.513 16.2084 112.705 11.1204 116.545 10.4964ZM101.089 21.2004C98.5453 18.7524 94.9933 17.8404 90.6733 17.6964C85.5373 17.6004 78.4813 20.2404 73.7773 23.2164C68.3053 26.6244 64.2253 30.6564 63.6013 34.5924C62.6893 40.2084 66.9133 41.3604 70.2733 41.3604C76.6573 41.3604 86.6893 35.4564 97.1053 25.0884C98.2093 23.9364 99.5533 22.6404 101.089 21.2004Z" fill="black"/>
<path d="M55.8245 23.9838C57.4085 24.8958 55.7765 26.9118 53.9525 28.2078C52.4165 29.2638 48.8645 30.4638 47.9045 29.8878C44.9285 32.6718 41.5685 36.8478 43.3445 37.6158C44.2085 37.9518 46.1285 37.3278 48.0965 36.0798C50.4005 34.6398 52.8485 32.4798 54.1925 31.2318C54.3845 31.0398 54.7205 30.8478 54.8645 31.0398C55.0565 31.2798 54.8165 31.5198 54.6245 31.7118C52.9925 33.1998 51.2165 34.7358 49.1045 36.1758C47.4245 37.3758 45.1205 38.5278 43.2485 38.3838C42.0005 38.2398 40.8965 37.5198 41.0885 35.7918C41.1365 34.8798 41.7605 32.5278 44.8325 29.5518C48.4805 26.0958 54.1445 23.0238 55.8245 23.9838ZM55.5365 24.4158C54.9605 23.9358 50.5445 27.2958 48.1925 29.5998C48.9125 29.8878 51.3125 29.0718 53.4245 27.3918C55.0085 26.1438 56.0165 24.7998 55.5365 24.4158Z" fill="black"/>
<path d="M47.6114 24.5597C47.4194 25.1357 46.8914 25.8077 46.5074 26.2397C45.4994 27.3437 44.3954 28.5917 43.1954 29.6957C38.9234 33.6317 36.7634 35.0717 35.4194 36.0797C33.8834 37.1837 31.6754 38.3357 30.2834 38.3357C27.0674 38.3357 28.1234 34.4957 31.6754 30.8477C33.4994 28.9757 37.0994 26.2397 40.6994 24.8957C38.6354 24.8957 36.8114 25.2797 35.6114 25.7117C34.3634 26.1437 33.9794 27.1037 33.7874 26.6717C33.5474 26.1437 33.9794 25.2797 35.2754 24.8477C36.2834 24.5117 39.0674 24.0317 42.2354 24.4157C42.4754 24.4157 42.5234 24.4157 42.6194 24.5597C42.6674 24.6557 42.4754 24.7517 42.2834 24.8957C38.3954 27.4397 33.4994 32.0957 31.9154 34.0157C30.4274 35.8397 29.5154 37.1837 30.2354 37.5197C30.9554 37.8557 33.3554 36.6557 34.9874 35.4557C38.3954 32.9117 40.6994 30.7517 43.3394 27.6797C45.3554 25.3277 44.0114 25.0877 44.4434 24.5597C44.8754 24.0797 48.0914 23.0717 47.6114 24.5597Z" fill="black"/>
<path d="M51.944 11.4562C51.752 11.9362 50.984 12.2722 50.072 12.2722C48.248 12.2722 46.04 11.7442 43.88 11.3122C42.008 10.9762 40.04 10.5442 37.88 10.2082C33.464 11.8402 30.104 15.1522 28.616 17.0722C27.272 18.7522 26.552 20.6722 26.984 21.6322C27.512 21.5842 29.144 21.9682 29.624 22.1122C30.344 22.4002 31.064 22.8322 30.968 23.1682C30.776 23.5522 30.008 23.5522 29.336 23.4082C28.712 23.2162 27.464 22.7842 26.696 22.1122C24.92 22.0642 22.28 23.1682 20.504 24.1282C15.176 26.7682 11.288 30.9922 10.04 34.7362C8.83999 38.3362 10.664 40.3042 13.832 40.4002C18.104 40.5442 24.2 37.6162 28.76 34.2082C30.056 33.2482 31.208 32.2882 32.072 31.5202C33.128 30.6562 33.56 30.0802 33.8 30.3202C34.088 30.6082 33.704 30.8962 32.6 31.9042C31.784 32.6242 30.584 33.7282 29.432 34.5922C24.872 38.1442 18.392 41.2642 13.784 41.2642C10.04 41.3122 6.91999 39.3922 7.15999 35.7922C2.74399 35.4562 0.727991 32.2402 0.631991 28.2082C0.583991 23.5042 3.22399 18.5602 7.63999 14.6722C12.824 10.1122 19.88 7.85623 27.32 7.85623C30.584 7.85623 33.848 8.33623 36.92 9.00823C39.608 8.19223 43.688 7.47223 47.576 7.85623C50.984 8.14423 52.472 9.82423 51.944 11.4562ZM51.464 11.2162C51.896 10.1122 50.648 8.67223 47.72 8.43223C44.744 8.19223 41.864 8.91223 39.704 9.58423C41.24 9.96823 42.728 10.3522 44.072 10.6882C46.04 11.2162 48.776 11.7922 50.024 11.7922C50.696 11.7922 51.224 11.6962 51.464 11.2162ZM34.808 9.77623C32.6 9.53623 30.152 9.34423 27.464 9.34423C21.176 9.34423 13.784 10.9762 8.31199 15.3922C3.99199 18.8962 1.35199 23.9842 1.44799 28.2562C1.49599 32.0482 3.46399 34.9282 7.25599 35.1682C7.78399 30.8002 12.632 26.4802 16.232 24.4162C18.824 22.9762 22.424 21.7762 26.36 21.6322C25.784 20.8162 25.784 18.7522 26.84 16.7362C27.944 14.8162 30.776 11.6002 34.808 9.77623Z" fill="black"/>
</svg>
