<svg width="28" height="28" viewBox="0 0 28 28" fill="none" xmlns="http://www.w3.org/2000/svg">
<path d="M23.2298 4.74282C23.3663 4.64399 23.5007 4.54519 23.6328 4.4467C23.5339 4.58867 23.4346 4.73312 23.3354 4.87989C21.5547 7.51269 19.6996 10.9902 19.7066 14.1218C19.7134 17.2294 21.5554 20.6663 23.3205 23.2654C23.4995 23.529 23.6784 23.7849 23.8555 24.0322C23.6077 23.8546 23.3511 23.6751 23.0869 23.4955C20.4878 21.7292 17.0506 19.8868 13.9423 19.8852C10.8601 19.8836 7.42856 21.6919 4.82858 23.4266C4.63681 23.5545 4.449 23.6825 4.26561 23.8097C4.39362 23.6374 4.52233 23.4611 4.6511 23.281C6.45721 20.756 8.35339 17.4039 8.39223 14.3418C8.43036 11.3356 6.68601 7.99422 5.00764 5.46667C4.80065 5.15494 4.59357 4.85401 4.38952 4.5659C4.67698 4.76924 4.97718 4.97559 5.28814 5.18189C7.81573 6.85877 11.1566 8.60265 14.1621 8.5709C17.274 8.53803 20.6721 6.59502 23.2298 4.74282Z" fill="black" stroke="black"/>
</svg>
