<svg width="38" height="37" viewBox="0 0 38 37" fill="none" xmlns="http://www.w3.org/2000/svg">
<path d="M31.917 17.9055C32.0834 17.9322 32.2482 17.9573 32.4113 17.9811C32.241 18.0115 32.0686 18.0435 31.8947 18.0771C28.7739 18.6796 25.0032 19.8269 22.7937 22.0461C20.6011 24.2484 19.4734 27.9811 18.8837 31.0671C18.8239 31.38 18.7694 31.6876 18.7197 31.9877C18.6701 31.6868 18.6156 31.3784 18.5557 31.0646C17.9669 27.9778 16.8391 24.2446 14.6424 22.0455C12.4641 19.865 8.75896 18.7172 5.6939 18.1053C5.46781 18.0602 5.24455 18.0179 5.0249 17.9781C5.23726 17.9468 5.45297 17.9131 5.67134 17.8769C8.73393 17.3685 12.445 16.339 14.6377 14.2013C16.7903 12.1026 17.9196 8.50638 18.5201 5.53234C18.5942 5.16555 18.6605 4.80634 18.72 4.45833C18.7794 4.80538 18.8458 5.16357 18.9198 5.52933C19.5213 8.50233 20.6506 12.0978 22.7982 14.2006C25.022 16.3778 28.7987 17.4066 31.917 17.9055Z" fill="black" stroke="black"/>
</svg>
