<svg width="264" height="118" viewBox="0 0 264 118" fill="none" xmlns="http://www.w3.org/2000/svg">
<path d="M64.9886 79.1136C75.1478 78.6667 84.4105 75.5379 90.6853 69.7273H90.9841C87.5479 86.4141 73.2056 102.654 49.4511 102.654C23.7545 102.654 0 85.8182 0 53.1894C0 23.0934 19.2725 5.06565 47.9571 2.53283V2.83081C36.4534 11.9192 30.1786 24.5833 30.1786 42.6111C30.1786 53.6364 32.8678 62.2778 37.6486 68.2374V23.0934L66.9308 0.446973L85.9045 14.899L88.2949 10.5783L90.5359 12.0682L75.7454 40.0783H91.7311L87.6973 60.1919H64.9886V79.1136ZM49.4511 99.8232C66.7814 99.8232 78.2852 90.5859 83.0659 82.5404H82.7672C74.9984 90.1389 65.5862 94.3106 52.8873 94.3106C34.6606 94.3106 9.86035 82.3914 9.86035 49.6136C9.86035 26.6692 23.3063 13.8561 34.6606 8.19444V7.89647C18.9737 12.8131 2.83858 26.2222 2.83858 53.1894C2.83858 84.3283 25.6967 99.8232 49.4511 99.8232ZM57.0705 14.601V21.4545L75.1478 35.3106L77.837 30.2449L57.0705 14.601ZM40.4872 24.2853V64.0657L44.8198 62.1288V21.0076L40.4872 24.2853ZM57.0705 59.596L37.6486 68.2374C43.3258 75.3889 51.8415 78.9646 62.2995 79.1136V28.7551L57.0705 24.5833V59.596ZM64.9886 30.8409V54.6793L73.9526 37.6944L64.9886 30.8409ZM85.6057 57.5101L86.5021 52.7424H69.0224L66.4826 57.5101H85.6057Z" fill="black"/>
<path d="M108.126 101.462L93.336 85.9672L108.126 70.4722L122.917 85.9672L108.126 101.462ZM108.276 97.8864L111.712 94.3106L100.208 82.3914L96.7721 85.9672L108.276 97.8864Z" fill="black"/>
<path d="M209.319 93.2677C200.355 98.4823 197.068 102.654 196.321 106.23C197.367 104.293 199.309 102.952 202.297 102.952C206.928 102.952 209.468 106.23 209.468 110.253C209.468 114.871 206.48 118 201.849 118C197.516 118 193.184 114.126 193.184 107.422C193.184 102.803 193.931 99.2273 196.321 94.0126C199.907 86.2652 208.273 75.5379 208.273 58.553V56.4672C206.181 55.1263 204.09 54.8283 201.998 54.8283C199.309 54.8283 196.321 55.5732 194.08 57.5101C191.988 65.5556 188.104 70.7702 183.921 75.2399L198.413 67.9394L201.401 60.4899L203.791 61.3838L188.104 100.419C174.509 97.4394 166.591 96.0985 159.27 95.2045C155.983 94.7576 153.892 94.6086 150.754 94.7576C145.525 94.9066 139.549 97.5884 138.504 104.889C139.699 103.101 141.641 101.76 144.48 101.76C149.111 101.76 151.651 105.038 151.651 109.061C151.651 113.679 148.663 116.808 144.031 116.808C139.699 116.808 135.814 113.232 135.814 107.422C135.814 97.8864 142.388 94.0126 143.434 81.6465C141.193 73.154 134.022 73.303 130.585 73.601C130.287 72.2601 130.137 71.0682 130.137 70.0253C130.137 64.2146 133.872 61.2348 138.055 61.2348C139.4 61.2348 140.595 61.5328 141.79 61.8308C141.342 60.0429 140.894 58.255 140.595 56.1692C136.86 52.7424 132.677 52.8914 129.988 53.1894C129.689 51.8485 129.689 50.8056 129.689 49.7626C129.689 44.399 132.826 40.8232 137.607 40.8232C138.653 40.8232 139.699 40.9722 141.043 41.5682C142.836 35.3106 146.72 29.649 150.157 25.3283C148.663 26.5202 147.019 27.1162 145.376 27.1162C140.745 27.1162 139.4 24.4343 136.263 24.4343C133.573 24.4343 132.079 25.9242 130.884 27.5631H130.585C130.436 25.9242 130.287 24.2853 130.287 22.7955C130.287 9.38637 136.113 0.446973 145.824 0.446973C153.593 0.446973 156.581 6.10859 162.557 6.10859C165.545 6.10859 168.085 4.76768 170.326 2.83081L170.774 4.61869C164.499 11.1742 162.407 19.2197 162.407 26.5202C162.407 40.2273 168.832 47.6768 168.832 63.1717C168.832 77.7727 158.075 88.053 150.754 92.3737C153.294 91.9268 156.282 92.0758 157.776 92.2247C164.051 88.5 173.911 78.6667 173.911 63.3207C173.911 47.8258 167.487 39.0354 167.487 25.9242C167.487 12.9621 176.152 0 190.793 0C193.034 0 195.275 0.297985 196.769 0.893937V1.19192C193.184 3.57576 191.391 7.30051 191.391 12.8131C191.391 19.0707 193.333 25.1793 194.528 32.6288L216.639 8.79041C226.5 16.8359 235.613 29.947 235.613 49.3157C235.613 69.1313 226.201 83.4343 209.319 93.2677ZM187.208 3.27778V2.97979C179.29 3.57576 170.326 12.3662 170.326 25.7753C170.326 38.8864 176.75 47.2298 176.75 63.0227C176.75 71.0682 174.658 78.8157 167.935 86.1162L170.624 85.9672C177.497 78.9646 181.381 68.8333 181.381 54.9773C181.381 39.4823 176.6 33.0758 176.6 21.9015C176.6 14.005 180.634 6.55556 187.208 3.27778ZM145.226 24.5833C148.812 24.5833 150.904 22.3485 152.248 20.5606L155.834 15.346C153.443 17.4318 150.605 19.3687 147.169 19.2197C143.135 19.2197 141.043 16.3889 137.458 16.3889C134.619 16.3889 132.826 18.4747 132.826 21.4545C132.826 21.9015 132.826 22.3485 132.976 23.0934C133.872 22.3485 135.067 21.9015 136.412 21.9015C139.699 21.9015 142.239 24.5833 145.226 24.5833ZM211.112 58.1061C211.112 73.005 206.331 81.0505 200.803 91.1818L201.102 91.3308C211.859 79.8586 217.237 66.4495 217.237 54.3813C217.237 42.6111 214.1 32.9268 206.928 23.2424L202.895 27.7121C207.974 35.7576 211.112 45.5909 211.112 58.1061ZM143.135 93.7146C148.364 88.947 152.248 82.8384 152.248 73.899C152.248 63.1717 149.111 58.1061 148.364 48.4217C147.916 42.1641 149.26 35.6086 152.099 27.2652H151.8C147.916 32.1818 142.836 40.3763 142.836 48.8687C142.836 59.596 146.422 63.7677 146.422 77.1768C146.422 83.1364 145.227 88.053 142.836 93.7146H143.135ZM200.654 29.798L194.976 35.9066C195.275 37.9924 195.425 40.2273 195.574 42.6111C197.367 43.3561 199.309 43.654 201.251 43.3561C202.895 43.0581 204.687 42.0151 205.584 40.8232C204.09 36.0556 202.148 32.3308 200.654 29.798ZM201.998 52.2954C203.791 52.2954 206.032 52.5934 208.124 53.6364C207.825 49.7626 207.078 46.3359 206.331 43.2071C205.136 44.548 203.343 45.4419 201.55 45.7399C199.458 46.0379 197.516 45.7399 195.574 44.9949C195.574 48.4217 195.275 51.4015 194.827 54.2323C197.068 52.7424 199.757 52.2954 201.998 52.2954ZM131.93 50.8056C134.918 50.5076 138.205 51.4015 140.147 53.0404C140.147 52.1465 139.998 50.9545 139.998 49.7626C138.952 48.8687 137.01 48.1237 135.067 48.1237C132.677 48.1237 131.93 49.3157 131.93 50.8056ZM132.826 71.2172C137.757 71.0682 142.089 72.8561 143.583 77.1768C143.583 75.6869 143.583 74.197 143.434 73.005C142.089 69.8763 138.802 68.3864 135.814 68.3864C133.424 68.3864 132.528 69.5783 132.826 71.2172ZM186.61 97.2904L189.449 90.1389C181.531 89.096 171.82 88.649 166.292 88.351C164.947 89.8409 163.005 91.6288 161.212 92.8207C169.728 94.0126 178.094 95.5025 186.61 97.2904ZM144.33 103.995C141.492 103.995 139.4 105.932 139.4 109.21C139.4 110.997 139.998 112.338 141.043 113.232C141.043 109.806 143.135 106.081 146.123 104.293C145.525 103.995 144.928 103.995 144.33 103.995ZM202.297 105.336C199.458 105.336 197.367 107.273 197.367 110.55C197.367 112.338 197.964 113.679 199.01 114.722C199.16 111.146 200.952 107.273 203.94 105.634C203.343 105.336 202.895 105.336 202.297 105.336Z" fill="black"/>
<path d="M249.209 101.462L234.419 85.9672L249.209 70.4722L264 85.9672L249.209 101.462ZM249.359 97.8864L252.795 94.3106L241.291 82.3914L237.855 85.9672L249.359 97.8864Z" fill="black"/>
</svg>
