<svg width="189" height="33" viewBox="0 0 189 33" fill="none" xmlns="http://www.w3.org/2000/svg">
<path d="M22.64 20.9C20.64 24.86 17.92 27.14 14.44 27.7C13.64 27.82 12.76 27.9 11.8 27.9C9.68 27.9 7.76 27.46 6 26.62C4.12 25.66 2.64 24.3 1.64 22.58C0.56 20.66 0 18.5 0 16.14C0 13.38 0.68 10.86 2.04 8.62C3.52 6.22 5.48 4.62 8 3.78C5.08 6.18 3.12 9.94 3.12 13.62C3.12 16.02 3.96 18.3 5.6 20.42C5.96 19.74 6.16 18.7 6.16 17.38V7.86L13.8 1.3C14.92 2.06 16.16 2.58 17.52 2.9C19.28 3.34 20.72 3.5 21.88 3.38L22.36 3.34L16.88 9.26H21.12L19.16 13.38H12.88L12.84 24.3L14.32 24.46C16.68 24.46 19.4 23.26 22.44 20.86L22.64 20.9ZM17.48 7.34L12.84 5.46V12.38L17.48 7.34ZM11.88 24.18V4.7L10.16 6.1V13.62C10.16 15.14 9.8 16.5 9.04 17.7C8.48 18.62 7.52 19.66 6.16 20.82C7.56 22.42 9.48 23.54 11.88 24.18ZM36.6431 24.66C34.2031 25.42 32.2431 26.42 30.7231 27.74C28.5631 26.18 26.1631 25.14 23.5231 24.58C24.2831 23.9 24.6431 22.86 24.6431 21.5V12.18C23.5631 10.82 23.0031 9.58 23.0031 8.46C23.0031 6.74 24.2831 5.18 26.8831 3.78L27.0831 4.1C26.0031 5.06 25.4831 5.94 25.4831 6.74C25.4831 7.02 25.9631 7.86 26.9231 9.22C27.9231 10.54 28.4031 11.78 28.4031 12.9L34.0831 8.82C35.8031 10.46 36.6431 11.78 36.6431 12.82V24.66ZM32.8831 24.58V13.98C32.8831 13.46 32.4431 12.7 31.5231 11.7L28.3231 14.06V22.86C29.0831 23.22 30.0031 23.58 31.1631 23.98L32.8831 24.58ZM50.3556 13.98C47.4356 16.02 45.1556 17.74 43.4356 19.22V23.38L46.7956 24.86L49.4356 23.18L49.8756 23.66C49.1956 24.1 48.4756 24.58 47.6756 25.14L44.1956 27.58C42.4356 26.62 40.5956 25.94 38.6756 25.58C39.4356 24.78 39.7956 23.82 39.7956 22.66V11.98C41.6356 11.14 43.4356 10.06 45.1956 8.82L50.3556 13.98ZM47.1956 15.3L43.3956 11.42V18.3L47.1956 15.3ZM91.1731 16.18C91.1731 18.26 90.9331 19.98 90.4531 21.38C89.8531 23.18 88.8131 24.58 87.3331 25.66C86.6931 26.1 85.8531 26.74 84.7731 27.5C83.4931 28.5 82.8131 29.34 82.7331 29.98L82.6931 30.1C82.6931 30.62 83.0531 30.86 83.8131 30.86L84.0131 30.78C84.7731 30.78 85.1331 31.02 85.1331 31.46C85.1331 32.14 84.2131 32.74 83.4531 32.74C82.8531 32.74 82.3331 32.46 81.8931 31.94C81.5731 31.5 81.4131 31.1 81.4131 30.66C81.4131 30.02 81.8131 29.1 82.6131 27.94C84.1731 25.74 85.0131 24.46 85.2131 24.1C85.9331 22.78 86.4531 21.3 86.7331 19.58C85.5331 19.14 84.3731 18.9 83.2531 18.9C80.6531 18.9 77.8131 20.34 74.7331 23.18L75.6531 23.26C78.0931 23.46 79.5331 23.58 79.8931 23.58C81.5331 23.58 82.7731 23.1 83.6131 22.1L84.0531 22.58L80.4131 28.1C78.2931 26.82 75.6531 26.18 72.5331 26.18C69.6531 26.18 67.8931 26.82 67.2531 28.06C67.0931 28.38 67.0131 28.62 67.0131 28.78C67.0131 29.22 67.4931 30.42 67.4931 30.9C67.4931 31.5 67.2131 31.82 66.6531 31.82H66.4531C65.7731 31.82 65.4531 31.38 65.4531 30.54C65.4531 29.78 65.7731 28.94 66.4131 27.98C66.6931 27.58 67.2131 26.94 67.9731 26.1C69.2531 24.7 70.0531 23.46 70.3331 22.46L70.4131 21.82C70.4131 21.1 70.0531 20.74 69.3331 20.74C68.4931 20.74 67.7331 21.1 67.0531 21.86L66.9731 21.14C66.9731 19.5 68.0931 18.42 70.2931 17.9L70.3331 17.42C70.4531 16.02 69.5331 14.7 68.1331 14.54C67.8931 14.5 67.6131 14.5 67.3331 14.5C66.4931 14.5 65.6131 14.7 64.7731 15.1C64.9731 14.02 65.5331 13.18 66.5331 12.54C67.4131 11.94 68.4131 11.66 69.5731 11.66C69.5731 9.94 69.8931 8.54 70.5731 7.42C70.9731 6.74 71.9331 5.66 73.4531 4.14C72.5731 4.46 71.8531 4.62 71.2531 4.62C70.8531 4.62 70.3331 4.5 69.6531 4.26C68.6531 3.94 68.0931 3.78 68.0131 3.74L67.0931 3.62C66.6131 3.62 66.0531 3.9 65.3731 4.46C65.2531 4.54 64.9731 4.82 64.4531 5.3C64.9731 2.74 66.8531 0.699999 69.3731 0.699999C70.2131 0.699999 71.4931 0.939999 73.2131 1.42C74.1331 1.7 74.8531 1.82 75.3731 1.82L75.7731 1.78C76.2131 1.74 76.8131 1.58 77.6131 1.38L79.2931 0.939999C77.2931 2.14 75.9331 3.26 75.2131 4.3C74.3731 5.54 73.9331 7.3 73.9331 9.5V15.74C73.9331 17.78 73.7331 19.42 73.3331 20.62C72.9331 21.9 72.1331 23.34 70.8931 24.9L71.0131 25.02C72.8131 23.78 74.0931 22.62 74.8131 21.54C75.7331 20.22 76.1731 18.58 76.1731 16.62V9.58C76.1731 6.98 76.9331 4.94 78.4931 3.5C79.8131 2.26 81.8131 1.38 84.5331 0.86C83.0531 1.74 82.0131 2.54 81.3331 3.3C80.3731 4.38 79.8931 5.58 79.8931 6.94V11.3L86.5331 5.98C88.2531 7.34 89.4131 8.66 90.0931 9.9C90.8131 11.26 91.1731 12.98 91.1731 15.06V16.18ZM86.7331 13.42C86.2931 11.3 85.2931 9.82 83.8131 9.06L79.9331 12.34V13.42C81.7331 13.86 82.9731 14.06 83.5731 14.06C84.1731 14.06 84.7731 13.98 85.4131 13.82C85.5331 13.78 85.9731 13.66 86.7331 13.42ZM86.6931 18.74V14.22C85.8131 14.5 84.6931 14.66 83.3731 14.66C82.2131 14.66 81.0931 14.54 79.9331 14.26V18.62C81.0931 18.3 82.2131 18.14 83.2131 18.14C84.3331 18.14 85.4931 18.34 86.6931 18.74ZM107.022 24.74L103.582 27.62C101.862 26.7 101.022 25.26 101.022 23.3L95.5819 27.66H95.3819C93.5019 25.9 92.5419 24.18 92.5419 22.54C92.5419 20.06 93.8619 17.66 96.5019 15.3L94.5819 10.3L95.1019 10.34C96.5819 10.46 97.9819 9.94 99.2219 8.78L104.902 10.66L106.022 9.78L106.102 9.94C105.462 10.94 105.022 11.94 104.742 13.02V23.5C104.942 24.18 105.342 24.58 105.862 24.74L106.582 24.38L107.022 24.74ZM101.022 17.22V12.82L95.2219 10.66L96.9019 15.22L101.022 17.22ZM101.062 22.26V17.94L96.9019 15.86C96.1419 17.22 95.7419 18.54 95.7419 19.78C95.7419 21.58 96.5019 23.26 98.0619 24.82L101.062 22.26ZM120.881 11.7L118.241 13.98L115.841 11.62L114.281 12.82V23.18L116.441 24.86L117.601 24.02L118.081 24.5L114.441 27.62C112.921 26.3 111.201 25.3 109.321 24.58C110.041 23.98 110.401 23.02 110.401 21.7V13.66C110.401 12.98 110.081 12.34 109.441 11.82L108.761 12.26L108.321 11.82L111.721 8.82C112.561 9.26 113.121 9.66 113.441 10.02C113.841 10.46 114.121 11.1 114.241 11.94L118.281 8.86L120.881 11.7ZM130.605 11.42H126.525V23.06L128.645 24.82L129.765 23.94L130.205 24.5L126.605 27.62C124.765 26.14 123.085 25.1 121.565 24.58C122.285 23.82 122.645 22.86 122.645 21.7V11.38H121.245L121.285 10.82L126.485 4.3L126.525 9.38H130.605V11.42ZM153.635 24.66C151.595 25.22 149.715 26.26 147.995 27.74C145.955 26.74 144.395 26.22 143.315 26.22C142.075 26.22 140.875 26.74 139.635 27.74C137.795 26.38 135.475 25.34 132.635 24.58C133.395 23.9 133.755 22.86 133.755 21.5V12.18C132.595 10.78 131.995 9.54 131.995 8.46C131.995 6.74 133.315 5.18 135.955 3.78L136.155 4.1C135.075 5.06 134.555 5.94 134.555 6.74C134.555 7.02 135.035 7.86 135.995 9.22C136.995 10.54 137.475 11.78 137.475 12.9L142.875 8.86C144.475 10.1 145.355 11.46 145.475 13.02L150.915 8.82C152.715 10.38 153.635 11.82 153.635 13.14V24.66ZM150.235 24.78V13.98C150.235 13.54 149.995 13.02 149.475 12.5C149.315 12.3 149.075 12.06 148.715 11.7L145.515 14.06V23.38C146.395 23.7 147.355 24.02 148.435 24.3C148.795 24.38 149.395 24.54 150.235 24.78ZM141.795 24.78V13.98C141.795 13.66 141.715 13.34 141.515 13.06C141.475 12.94 141.075 12.5 140.355 11.7L137.395 14.06V23.1C138.515 23.62 139.995 24.18 141.795 24.78ZM167.153 13.98C164.233 16.02 161.953 17.74 160.233 19.22V23.38L163.593 24.86L166.233 23.18L166.673 23.66C165.993 24.1 165.273 24.58 164.473 25.14L160.993 27.58C159.233 26.62 157.393 25.94 155.473 25.58C156.233 24.78 156.593 23.82 156.593 22.66V11.98C158.433 11.14 160.233 10.06 161.993 8.82L167.153 13.98ZM163.993 15.3L160.193 11.42V18.3L163.993 15.3ZM177.879 24.5L174.239 27.62C172.959 26.5 171.079 25.5 168.559 24.58C169.239 23.82 169.599 22.86 169.599 21.7V5.74C169.599 4.94 169.159 4.1 168.279 3.18C169.279 3.42 170.159 3.86 170.919 4.46L171.359 4.42C172.599 3.26 173.999 2.58 175.479 2.38C174.159 3.34 173.519 4.54 173.519 6.02V22.86L176.439 24.7L177.399 23.98L177.879 24.5ZM188.543 24.5L184.903 27.62C183.623 26.5 181.743 25.5 179.223 24.58C179.903 23.82 180.263 22.86 180.263 21.7V5.74C180.263 4.94 179.823 4.1 178.943 3.18C179.943 3.42 180.823 3.86 181.583 4.46L182.023 4.42C183.263 3.26 184.663 2.58 186.143 2.38C184.823 3.34 184.183 4.54 184.183 6.02V22.86L187.103 24.7L188.063 23.98L188.543 24.5Z" fill="black"/>
</svg>
